<svg xmlns="http://www.w3.org/2000/svg" viewBox="0 0 64 64" fill="none" stroke="currentColor" strokeWidth="4" strokeLinecap="round" strokeLinejoin="round">
  <path d="M16 18c-2-6 0-10 5-12 2 5 2 12 2 12s-5 0-7 0z"/>
  <path d="M48 18c2-6 0-10-5-12-2 5-2 12-2 12s5 0 7 0z"/>
  <path d="M18 18c0-6 6-12 14-12s14 6 14 12"/>
  <path d="M32 18v18"/>
  <path d="M18 26c0 14 6 18 14 18s14-4 14-18"/>
  <path d="M20 34c2 0 2-4 5-4s3 4 5 4 2-4 5-4 3 4 5 4"/>
  <path d="M22 18c-3 0-6 2-6 6 0 5 4 14 9 14"/>
  <path d="M42 18c3 0 6 2 6 6 0 5-4 14-9 14"/>
  <path d="M26 46c2 4 6 6 10 6s8-2 10-6"/>
</svg>
